# xmcd
#
# Track frame offsets:
#	150
#	12452
#	27060
#	46675
#	63615
#	77340
#	93685
#	111087
#	128402
#	140957
#	154320
#	174995
#	195617
#	208945
#
# Disc length: 2934 seconds
#
# Revision: 2
# Processed by: cddbd v1.5.2PL0 Copyright (c) Steve Scherf et al.
# Submitted via: EZCDAudioConverter 2.2.0.1
#
DISCID=bc0b740e
DTITLE=Vários - Talentos Sertanejos
DYEAR=1996
DGENRE=Sertanejo
TTITLE0=Roberta Miranda - Dói
TTITLE1=Cezar and Paulinho - Você É Tudo Que Pedi Pra Deus (Magia)
TTITLE2=Dalvan - Viver Longe De Você Não Dá
TTITLE3=Sula Mazurega - Pássaro Livre (No More Boleros)
TTITLE4=João Paulo and Daniel - Aos Trancos E Barrancos
TTITLE5=Chrystian and Ralf - Dez Minutos
TTITLE6=Jean and Junior - Secretária De Sucesso
TTITLE7=Matogrosso and Mathias - Foi Pensando Em Você
TTITLE8=Gian and Giovani - Espuma De Cerveja
TTITLE9=Chico Rey and Paraná - Alma Transparente
TTITLE10=Joaquim and Manuel - Som De Cristal
TTITLE11=Ataíde and Alexandre - Doces Palavras
TTITLE12=Sula Miranda - Filme Triste
TTITLE13=Felipe and Falcão - Mulher Tem Que Ter Marido
EXTD=
EXTT0=
EXTT1=
EXTT2=
EXTT3=
EXTT4=
EXTT5=
EXTT6=
EXTT7=
EXTT8=
EXTT9=
EXTT10=
EXTT11=
EXTT12=
EXTT13=
PLAYORDER=
